PathFileType	4	(X/Y/Z)	C:\Users\willi\Desktop\Data_PaperCallum_v2\17_Akif\Gait02\marker_experimental_temp.trc
DataRate	CameraRate	NumFrames	NumMarkers	Units	OrigDataRate	OrigDataStartFrame	OrigNumFrames
100.000000	100.000000	8	27	mm	100.000000	41	167
Frame#	Time	C7			T10			Clav			Sternum			Right_Back			PCL_CRAN			PCL_RECHTS			PCL_LINKS			RCL_UL_CRAN			RCL_UL_POST			RCL_UL_ANT			RCL_LL_CRAN			RCL_LL_POST			RCL_LL_ANT			Right_Heel			Right_Toe			Right_M5			LCL_UL_CRAN			LCL_UL_POST			LCL_UL_ANT			LCL_LL_CRAN			LCL_LL_POST			LCL_LL_ANT			Left_Heel			Left_Toe			Left_M5			*26			
		X1	Y1	Z1	X2	Y2	Z2	X3	Y3	Z3	X4	Y4	Z4	X5	Y5	Z5	X6	Y6	Z6	X7	Y7	Z7	X8	Y8	Z8	X9	Y9	Z9	X10	Y10	Z10	X11	Y11	Z11	X12	Y12	Z12	X13	Y13	Z13	X14	Y14	Z14	X15	Y15	Z15	X16	Y16	Z16	X17	Y17	Z17	X18	Y18	Z18	X19	Y19	Z19	X20	Y20	Z20	X21	Y21	Z21	X22	Y22	Z22	X23	Y23	Z23	X24	Y24	Z24	X25	Y25	Z25	X26	Y26	Z26	X27	Y27	Z27	

42	0.41	952.6297607421874	1413.823852539063	214.7356414794921	1000.4580078125	1198.519165039063	215.3385620117187	814.8986816406249	1334.133422851563	222.0464782714843	763.2783203124999	1168.663818359375	232.9454650878906	986.3451538085936	1355.153076171875	97.25220489501947	992.2760009765624	1025.072021484375	206.2907104492187	1001.642333984375	966.6071777343751	181.5608825683593	1003.521545410156	965.0415649414064	232.2081298828124	828.059814453125	737.5345458984375	24.72472763061518	826.8812866210938	671.9562377929688	27.86341667175288	781.8682861328125	691.672607421875	19.05823898315425	821.0196533203125	409.8858337402344	33.14990997314448	872.920166015625	369.2204589843751	35.89749526977533	828.1199340820313	344.6498718261719	36.88031387329097	1051.873168945313	141.0028228759766	136.9485778808593	882.3909912109375	60.99663543701178	95.46022033691401	932.7359008789063	67.70253753662115	50.50773620605463	885.1571044921875	750.9274291992188	376.0983886718749	897.8746337890625	687.8339233398438	364.9877624511718	849.354736328125	696.3952026367188	373.2515563964843	929.8001708984375	372.4161682128907	330.7315368652343	958.3554077148438	313.7001953125001	330.4028320312499	907.9526977539063	311.1091613769532	325.1895751953124	1022.374877929688	32.85884857177741	237.6248168945312	814.5631713867188	32.38466644287114	247.4146575927734	863.2816772460938	12.92901897430425	308.7995300292968	nan	nan	nan	
43	0.42	939.1828002929686	1413.447265625	215.3522186279296	987.4745483398436	1198.2236328125	215.8854980468749	801.6698608398436	1333.47314453125	222.1795501708984	750.4652099609374	1167.8916015625	233.4801940917968	973.5258789062499	1354.6943359375	98.30523681640619	979.5908813476561	1024.864501953125	206.1393127441406	988.9871215820311	966.4877929687501	181.1866455078124	991.1389160156249	964.7860107421876	231.828628540039	811.1804809570313	738.7695922851563	25.27369880676265	808.833740234375	673.1470947265625	28.35828781127925	764.0825805664063	693.7639770507813	20.57820701599116	797.307373046875	408.9899902343751	35.40707015991206	846.5245361328125	365.4374084472657	37.74891281127925	800.6079711914063	343.3822021484376	38.88488006591792	1012.033996582031	125.8146133422852	138.5321655273437	837.62548828125	58.20336532592778	95.02655792236322	888.6726684570313	62.02313232421881	50.45039367675776	876.1436157226563	750.3178100585938	375.8045654296874	889.7669677734375	687.4652709960938	364.2640380859374	841.1502075195313	695.2930908203125	372.7982482910156	927.3746337890625	372.6009521484376	330.3192138671874	956.6083374023438	314.2135925292969	330.0489501953124	906.2378540039063	311.0880432128907	324.9318847656249	1022.262939453125	33.2885475158692	237.2568817138671	814.4873046875	32.29418563842778	247.4712677001953	863.3111572265625	12.93902111053472	308.8110961914062	nan	nan	nan	
44	0.43	925.7058715820311	1412.785278320313	215.9060974121093	974.4531860351561	1197.65234375	216.3127136230468	788.3947143554686	1332.52490234375	222.2790527343749	737.6009521484374	1166.831909179688	233.9948120117187	960.6569213867186	1353.946044921875	99.30858612060541	966.8570556640624	1024.364624023438	205.8350830078124	976.2667236328124	966.0560302734376	180.6973571777343	978.7096557617186	964.2554931640626	231.3334197998046	794.505615234375	739.5912475585938	25.94255638122554	791.107421875	674.0016479492188	28.84541130065913	746.5523071289063	695.4091186523438	22.28332519531245	774.0751342773438	407.5522460937501	37.75239562988276	820.3473510742188	361.1524963378907	39.55411911010737	773.4068603515625	341.7979736328126	41.01874160766597	970.8385620117188	110.6256179809571	140.0423278808593	792.4514770507813	55.62951660156255	94.85535430908199	843.9392700195313	56.43577957153325	50.56624221801753	867.1129150390625	749.5765991210938	375.5370788574218	881.6323852539063	686.9589233398438	363.6181945800781	832.9171752929688	694.0596923828125	372.3152160644531	924.6730346679688	372.7254943847657	329.8851928710937	954.5816650390625	314.6830444335938	329.6936950683593	904.2807006835938	310.9828491210938	324.5961608886718	1022.135681152344	33.74286651611335	236.8336029052734	814.4004516601563	32.21305847167974	247.5340423583984	863.3482666015625	12.95144748687749	308.8214416503906	-88.06127929687524	726.4217529296875	-3209.3115234375	
45	0.44	912.1920776367186	1411.844970703125	216.392837524414	961.3819580078124	1196.811767578125	216.6184844970703	775.0628051757811	1331.298095703125	222.3416595458984	724.6743164062499	1165.493286132813	234.4817199707031	947.7301635742186	1352.912719726563	100.2566604614257	954.0611572265624	1023.575073242188	205.382827758789	963.4667358398436	965.3131103515626	180.1013031005859	966.2161865234374	963.4534912109376	230.7307586669921	778.1041870117188	739.960693359375	26.74090003967281	773.7430419921875	674.475341796875	29.40543746948238	729.3306884765625	696.5752563476563	24.12279891967769	751.3738403320313	405.6159973144532	40.15928268432613	794.47705078125	356.4527282714844	41.3804321289062	746.6112670898438	339.9701538085938	43.23960113525386	928.341796875	95.76255035400396	141.4903411865234	746.920166015625	53.44171524047856	94.93257141113277	798.5765991210938	51.13811874389653	50.84452438354487	858.0496826171875	748.716064453125	375.3046569824218	873.4447631835938	686.3209228515625	363.0770568847656	824.6353759765625	692.70751953125	371.8366699218749	921.669677734375	372.7872924804688	329.4367370605468	952.2457275390625	315.0982666015626	329.3321533203124	902.0367431640625	310.7895812988282	324.2234497070312	1021.99609375	34.22277832031256	236.3509674072265	814.3026123046875	32.14187240600591	247.6001434326171	863.396728515625	12.96757507324224	308.8270568847656	nan	nan	nan	
46	0.45	898.6349487304686	1410.63818359375	216.8076477050781	948.2483520507811	1195.711791992188	216.8031158447265	761.6647338867186	1329.806762695313	222.3636169433593	711.6738891601561	1163.890258789063	234.9335937499999	934.7377929687499	1351.60302734375	101.1432800292968	941.1889038085936	1022.5029296875	204.7908325195312	950.5717773437499	964.2651367187501	179.4083251953124	953.6398315429686	962.3869018554689	230.0304412841796	762.0538940429688	739.840576171875	27.66865921020503	756.8074951171875	674.5169677734375	30.12487602233882	712.4954223632813	697.2211303710938	26.04276466369625	729.241455078125	403.2423400878907	42.60464859008785	768.9890747070313	351.4417114257813	43.25922012329097	720.3080444335938	337.9816589355469	45.50243759155269	884.6572875976563	81.57695770263678	142.8806152343749	701.11474609375	51.81854248046879	95.23466491699214	752.669921875	46.34578323364262	51.26578140258785	848.9384155273438	747.74951171875	375.1152038574218	865.1792602539063	685.5608520507813	362.6534118652343	816.286376953125	691.25146484375	371.4011230468749	918.35498046875	372.7898864746094	328.9827575683593	949.588134765625	315.4566650390626	328.9568176269531	899.4694213867188	310.5129394531251	323.8489685058593	1021.844604492188	34.7349929809571	235.8061370849609	814.197021484375	32.07879257202153	247.6673583984374	863.4615478515625	12.98897171020513	308.8240966796874	-88.0606842041018	726.4191284179688	-3209.302001953125	
47	0.46	885.0285034179686	1409.180908203125	217.1455841064453	935.0395507812499	1194.365966796875	216.8691711425781	748.1916503906249	1328.070190429688	222.3410644531249	698.5881347656249	1162.042236328125	235.343521118164	921.6715698242186	1350.030151367188	101.9617156982421	928.2249145507811	1021.159484863281	204.0708923339843	937.5657958984374	962.9238281250001	178.6298217773437	940.9608154296874	961.0662231445314	229.2436828613281	746.428955078125	739.1969604492188	28.71389007568355	740.393310546875	674.0723876953125	31.07079505920406	696.142822265625	697.2942504882813	27.99303627014156	707.6972045898438	400.5061645507813	45.06955718994136	743.9417724609375	346.2360229492188	45.19532394409175	694.5695190429688	335.9206848144532	47.76359939575191	839.9718017578125	68.42626190185553	144.2112426757812	655.1693115234375	50.94512176513676	95.72893524169918	706.3665161132813	42.28710556030278	51.80432510375972	839.7632446289063	746.6915283203125	374.9754028320312	856.8135986328125	684.6939697265625	362.3474121093749	807.8536987304688	689.7093505859375	371.0466613769531	914.734375	372.7438964843751	328.5331115722656	946.6172485351563	315.7677612304688	328.5628662109374	896.56640625	310.1673583984376	323.4985656738281	1021.679077148438	35.29324340820319	235.1980590820312	814.0892944335938	32.02047729492192	247.7343292236328	863.5482788085938	13.01693344116216	308.8091125488281	-88.06039428710962	726.4178466796875	-3209.29736328125	
48	0.47	871.3671264648436	1407.493408203125	217.4017486572265	921.7424926757811	1192.791748046875	216.8214721679687	734.6357421874999	1326.11279296875	222.2701873779296	685.4050292968749	1159.974365234375	235.7052001953125	908.5233764648436	1348.21142578125	102.7048873901367	915.1530761718749	1019.560546875	203.2382507324218	924.4319458007811	961.3059692382813	177.7786102294921	928.1588745117186	959.5057983398438	228.3831329345703	731.2865600585938	738.003662109375	29.84949493408199	724.608642578125	673.0901489257813	32.26678848266597	680.37548828125	696.7327270507813	29.9283008575439	686.73828125	397.4919433593751	47.53921508789058	719.37353515625	340.9580993652344	47.183910369873	669.447998046875	333.8750610351563	49.98580551147457	794.5554809570313	56.64457321166997	145.4751586914062	609.2830200195313	51.00413131713871	96.37742614746089	659.8865356445313	39.19202423095707	52.4333000183105	830.5070190429688	745.5579833984375	374.8902587890624	848.327392578125	683.7415161132813	362.1499633789062	799.3215942382813	688.10205078125	370.8052978515624	910.824462890625	372.6669921875001	328.0988769531249	943.3619384765625	316.0544128417969	328.1488037109374	893.3497314453125	309.7776489257813	323.1889038085937	1021.4951171875	35.91923904418952	234.5292053222656	813.9863891601563	31.96349143981939	247.8006591796874	863.6622314453125	13.05195045471197	308.7797851562499	-88.06011962890649	726.4166259765625	-3209.29296875	
49	0.48	857.6459350585936	1405.599609375	217.5715789794921	908.3439941406249	1191.009643554688	216.6671600341796	720.9901123046874	1323.962890625	222.147476196289	672.1124267578124	1157.71630859375	236.0129699707031	895.2846679687499	1346.168212890625	103.3655395507812	901.9564819335936	1017.726257324219	202.3113555908203	911.1533813476561	959.4340209960938	176.8688507080078	915.2129516601561	957.7236938476563	227.4626464843749	716.6539306640625	736.24755859375	31.03070259094234	709.5573120117188	671.529541015625	33.67692184448238	665.2839965820313	695.472900390625	31.80371665954586	666.3397216796875	394.2889709472657	50.00242614746089	695.2998046875	335.7293090820313	49.22327804565425	644.9717407226563	331.9261779785157	52.14299392700191	748.7657470703125	46.50644683837895	146.6626434326171	563.7276000976563	52.16339492797855	97.14472198486325	613.5263671875	37.27553558349613	53.13234710693356	821.1502685546875	744.3657836914063	374.8626708984374	839.70166015625	682.7294311523438	362.0459899902343	790.6739501953125	686.4526977539063	370.6979980468749	906.6461791992188	372.5820312500001	327.6927795410156	939.864013671875	316.3507995605469	327.7174682617187	889.8724365234375	309.3775634765626	322.9308776855468	1021.287109375	36.64297866821295	233.8091125488281	813.8956298828125	31.90528678894048	247.8667602539062	863.8076782226563	13.09332752227789	308.7356872558593	-88.05984497070337	726.4154052734375	-3209.28857421875	
